<?xml version="1.0" standalone="no"?>
<!DOCTYPE svg PUBLIC "-//W3C//DTD SVG 1.0//EN" "http://www.w3.org/TR/2001/REC-SVG-20010904/DTD/svg10.dtd">
<svg xmlns="http://www.w3.org/2000/svg" xmlns:xlink="http://www.w3.org/1999/xlink" id="body_1" width="200" height="200">

<defs>
    <clipPath  id="1">

    <path id=""  clip-rule="evenodd" transform="matrix(1 0 0 1 0 0)"  d="M0 150L0 0L0 0L150.58594 0L150.58594 0L150.58594 150L150.58594 150L0 150z" />    </clipPath>
</defs>

<g transform="matrix(1.3333 0 0 1.3333 0 0)">
	<g clip-path="url(#1)" >
    <path id=""  transform="matrix(1 0 0 -1 0 150)"  d="M31.886229 35.62874C 31.886232 36.52694 32.33533 36.976036 33.233536 36.976036L33.233536 36.976036L33.233536 36.976036C 34.13174 36.976036 34.58084 36.52694 34.58084 35.62874L34.58084 35.62874L34.58084 35.62874C 34.58084 34.63073 34.13174 34.13173 33.233536 34.13173L33.233536 34.13173L33.233536 34.13173C 32.33533 34.13173 31.886232 34.63073 31.886229 35.62874zM30.389223 40.568855C 31.087824 40.568855 31.437126 40.219543 31.437126 39.520943L31.437126 39.520943L31.437126 39.520943C 31.437126 38.822342 31.087824 38.473038 30.389223 38.473038zM36.077847 31.437126C 36.077847 32.335327 36.526947 32.784424 37.42515 32.784424L37.42515 32.784424L37.42515 32.784424C 38.323357 32.784424 38.772457 32.335327 38.772457 31.437126L38.772457 31.437126L38.772457 31.437126C 38.772457 30.439117 38.323357 29.940117 37.42515 29.940117L37.42515 29.940117L37.42515 29.940117C 36.526947 29.940117 36.077847 30.439117 36.077847 31.437126zM26.047903 42.814377C 26.047903 43.413177 26.397205 43.712578 27.095806 43.712578L27.095806 43.712578L27.095806 43.712578C 27.794409 43.712578 28.14371 43.413177 28.14371 42.814377L28.14371 42.814377L28.14371 42.814377C 28.14371 42.11576 27.794409 41.766464 27.095806 41.766464L27.095806 41.766464L27.095806 41.766464C 26.397205 41.766464 26.047903 42.11576 26.047903 42.814377zM52.694614 27.844307C 52.69462 28.842308 53.143715 29.341316 54.041916 29.341316L54.041916 29.341316L54.041916 29.341316C 54.940117 29.341316 55.38922 28.842308 55.38922 27.844307L55.38922 27.844307L55.38922 27.844307C 55.38922 26.946106 54.940117 26.49701 54.041916 26.49701L54.041916 26.49701L54.041916 26.49701C 53.143715 26.49701 52.69462 26.946106 52.694614 27.844307zM55.68862 21.257477C 56.087822 21.157684 56.387222 21.057877 56.586826 20.958084L56.586826 20.958084L56.586826 20.958084L56.586826 20.958084L56.586826 21.856277zM74.7006 150C 85.079834 150 94.83533 148.02895 103.96707 144.08682L103.96707 144.08682L103.96707 144.08682C 113.098816 140.14471 121.05789 134.78044 127.84431 127.99401L127.84431 127.99401L127.84431 127.99401C 127.84431 119.91018 126.62176 112.150696 124.17664 104.715576L124.17664 104.715576L124.17664 104.715576C 121.731544 97.28044 118.338326 90.49401 113.99701 84.35629L113.99701 84.35629L113.99701 84.35629C 112.89921 84.15669 111.651695 84.10679 110.25449 84.20659L110.25449 84.20659L110.25449 84.20659C 108.857285 84.30638 108.00898 85.20459 107.70957 86.9012L107.70957 86.9012L107.70957 86.9012C 107.50997 88.0988 107.33533 89.69561 107.18562 91.69162L107.18562 91.69162L107.18562 91.69162C 107.035934 93.68763 106.936134 95.733536 106.88622 97.829346L106.88622 97.829346L106.88622 97.829346C 106.686615 98.02894 107.38523 98.25349 108.982025 98.50299L108.982025 98.50299L108.982025 98.50299C 110.57885 98.75249 112.5998 99.22655 115.04491 99.92515L115.04491 99.92515L115.04491 99.92515C 115.04491 106.71157 114.645706 112.00099 113.847305 115.79341L113.847305 115.79341L113.847305 115.79341C 113.04891 119.58583 112.20059 122.43014 111.30239 124.32635L111.30239 124.32635L111.30239 124.32635C 110.204575 126.52196 108.95708 127.91916 107.559875 128.51796L107.559875 128.51796L107.559875 128.51796C 106.16267 129.11676 105.53892 130.46407 105.68862 132.55988L105.68862 132.55988L105.68862 132.55988C 104.59082 133.05888 102.96906 132.95908 100.82336 132.26048L100.82336 132.26048L100.82336 132.26048C 98.67765 131.56187 96.45709 130.66367 94.161674 129.56587L94.161674 129.56587L94.161674 129.56587C 91.56687 128.26846 88.77246 126.67165 85.77844 124.77545L85.77844 124.77545L85.77844 124.77545C 82.78444 122.879234 80.339325 123.02894 78.443115 125.22455L78.443115 125.22455L78.443115 125.22455C 76.247505 124.82535 74.2016 124.37624 72.30539 123.87724L72.30539 123.87724L72.30539 123.87724C 70.40919 123.37824 68.812386 123.52795 67.51498 124.32635L67.51498 124.32635L67.51498 124.32635C 66.41717 123.82735 65.743515 122.55489 65.49401 120.50899L65.49401 120.50899L65.49401 120.50899C 65.244514 118.46307 65.16966 116.242516 65.26946 113.847305L65.26946 113.847305L65.26946 113.847305C 65.36926 111.052895 65.61877 107.959076 66.01797 104.56587L66.01797 104.56587L66.01797 104.56587C 66.41717 101.17265 66.042915 98.27844 64.89521 95.88324L64.89521 95.88324L64.89521 95.88324C 64.89521 91.29242 65.36926 87.2505 66.31737 83.75749L66.31737 83.75749L66.31737 83.75749C 67.26547 80.26447 68.537926 77.24551 70.134735 74.70061L70.134735 74.70061L70.134735 74.70061C 75.124756 72.10579 80.813385 70.60878 87.20061 70.20959L87.20061 70.20959L87.20061 70.20959C 93.58784 69.81038 93.38824 69.336334 86.60181 68.78743L86.60181 68.78743L86.60181 68.78743L86.60181 68.78743L86.30241 67.29043L86.30241 67.29043L86.30241 67.29043C 85.304405 66.89122 84.25651 66.54192 83.1587 66.24252L83.1587 66.24252L83.1587 66.24252C 82.0609 65.943115 80.96309 65.84332 79.86528 65.94312L79.86528 65.94312L79.86528 65.94312C 79.26648 66.44212 78.46808 66.86628 77.47008 67.215576L77.47008 67.215576L77.47008 67.215576C 76.47208 67.56488 75.474075 67.83933 74.47607 68.03893L74.47607 68.03893L74.47607 68.03893C 73.877266 67.739525 73.42816 67.31538 73.12876 66.76648L73.12876 66.76648L73.12876 66.76648C 72.82937 66.217575 73.078865 65.79342 73.877266 65.49402L73.877266 65.49402L73.877266 65.49402C 74.27647 65.29442 74.85032 64.920166 75.598816 64.37126L75.598816 64.37126L75.598816 64.37126C 76.34733 63.822357 77.12078 63.173653 77.91918 62.425156L77.91918 62.425156L77.91918 62.425156C 80.51399 62.425148 82.48505 62.450096 83.83235 62.500008L83.83235 62.500008L83.83235 62.500008C 85.179665 62.549904 86.20262 62.624756 86.901215 62.724556L86.901215 62.724556L86.901215 62.724556L86.901215 62.724556L86.901215 51.19761L86.901215 51.19761L86.901215 51.19761C 86.90122 50.5988 86.82637 49.92514 86.67667 49.176643L86.67667 49.176643L86.67667 49.176643C 86.52697 48.42813 86.252525 47.77944 85.85332 47.230545L85.85332 47.230545L85.85332 47.230545C 85.653725 47.33033 85.35432 47.380234 84.95511 47.38024L84.95511 47.38024L84.95511 47.38024C 84.55591 47.380234 79.29144 52.79441 69.1617 63.622757L69.1617 63.622757L69.1617 63.622757C 69.1617 74.00201 71.13275 83.75749 75.07487 92.88922L75.07487 92.88922L75.07487 92.88922C 79.01699 102.02096 84.381256 109.98004 91.16768 116.76647zM40.269463 28.293419C 40.269463 29.191612 40.718563 29.640724 41.616768 29.640724zM46.40719 26.796402C 46.40719 27.69461 46.85629 28.143707 47.754494 28.143707L47.754494 28.143707L47.754494 28.143707C 48.6527 28.143707 49.1018 27.69461 49.1018 26.796402z" stroke="none" fill="#1296DB" fill-rule="nonzero" />
	</g>
</g>
</svg>